<?xml version="1.0" standalone="no"?>
<!DOCTYPE svg PUBLIC "-//W3C//DTD SVG 20010904//EN"
 "http://www.w3.org/TR/2001/REC-SVG-20010904/DTD/svg10.dtd">
<svg version="1.0" xmlns="http://www.w3.org/2000/svg"
 width="1280.000000pt" height="1116.000000pt" viewBox="0 0 1280.000000 1116.000000"
 preserveAspectRatio="xMidYMid meet">
<metadata>
Created by potrace 1.15, written by Peter Selinger 2001-2017
</metadata>
<g transform="translate(0.000000,1116.000000) scale(0.100000,-0.100000)"
fill="#000000" stroke="none">
<path d="M5436 11136 c5 -20 -144 -280 -799 -1388 -442 -750 -1622 -2749
-2622 -4443 -1000 -1694 -1862 -3155 -1916 -3247 -55 -91 -99 -171 -99 -176 0
-5 205 -422 455 -926 250 -506 452 -923 448 -931 -3 -10 1 -15 13 -15 679 -3
6807 2 8543 7 l2434 6 250 506 c137 278 341 692 454 920 112 228 203 422 201
431 -2 9 -1231 2101 -2733 4648 l-2730 4631 -953 1 -952 0 6 -24z m2402 -969
c298 -507 1513 -2569 2700 -4582 l2158 -3660 -380 -6 c-210 -4 -2226 -10
-4480 -14 -3435 -6 -4098 -5 -4094 7 5 12 938 1704 976 1770 l16 28 2583 0
c1421 0 2583 2 2583 5 0 2 -667 1133 -1481 2512 -815 1379 -1790 3030 -2167
3668 -376 638 -688 1164 -693 1170 -5 5 -9 13 -9 17 0 4 393 8 873 8 l872 -1
543 -922z m-1246 -1012 c603 -1017 1564 -2641 2137 -3607 572 -967 1041 -1760
1041 -1763 0 -3 -388 -5 -862 -5 l-863 0 -850 1396 c-1217 1999 -1705 2798
-1713 2806 -4 4 -103 -157 -219 -360 -116 -202 -897 -1562 -1735 -3022 -838
-1460 -1760 -3066 -2048 -3567 -288 -502 -527 -913 -531 -913 -4 0 -16 21 -27
48 -11 26 -206 420 -432 876 -226 455 -410 834 -408 841 2 7 1216 2067 2698
4578 2021 3424 2698 4563 2706 4554 6 -7 504 -844 1106 -1862z m-737 -1919
c202 -329 371 -608 376 -620 10 -22 -236 -473 -2395 -4380 -124 -225 -226
-410 -226 -410 0 -1 2047 1 4549 2 l4550 4 -208 -419 c-114 -230 -307 -621
-430 -869 l-223 -451 -3691 -6 c-4075 -8 -7137 -9 -7137 -3 0 2 31 57 69 122
92 160 2707 4714 3640 6340 410 716 749 1299 753 1295 4 -3 172 -276 373 -605z
m1280 -2096 l826 -1355 -795 -3 c-437 -1 -1154 -1 -1594 0 l-800 3 757 1373
c651 1182 758 1370 768 1355 7 -10 384 -628 838 -1373z"/>
</g>
</svg>
